<svg width="277" height="142" viewBox="0 0 277 142" fill="none" xmlns="http://www.w3.org/2000/svg">
<g clip-path="url(#clip0_41_55)">
<rect width="277" height="142" rx="25" fill="white"/>
<rect width="277" height="142" rx="25" fill="#FEE920"/>
<path d="M79.6756 89V53.5H86.5756V89H79.6756ZM122.932 89V65.7L113.832 83.05H109.982L100.882 65.7V89H93.9822V53.5H101.382L111.882 73.7L122.482 53.5H129.832V89H122.932ZM137.244 89V53.5H150.144C154.011 53.5 157.244 54.3 159.844 55.9C162.444 57.4667 164.394 59.6 165.694 62.3C166.994 64.9667 167.644 67.9333 167.644 71.2C167.644 74.8 166.927 77.9333 165.494 80.6C164.061 83.2667 162.027 85.3333 159.394 86.8C156.794 88.2667 153.711 89 150.144 89H137.244ZM160.694 71.2C160.694 68.9 160.277 66.8833 159.444 65.15C158.611 63.3833 157.411 62.0167 155.844 61.05C154.277 60.05 152.377 59.55 150.144 59.55H144.144V82.95H150.144C152.411 82.95 154.327 82.45 155.894 81.45C157.461 80.4167 158.644 79.0167 159.444 77.25C160.277 75.45 160.694 73.4333 160.694 71.2ZM187.285 89.5C185.285 89.5 183.502 89.05 181.935 88.15C180.368 87.25 179.135 86.0167 178.235 84.45V89H172.385V52.5H179.085V67.4C180.018 65.8333 181.235 64.6 182.735 63.7C184.268 62.8 186.052 62.35 188.085 62.35C189.785 62.35 191.335 62.7167 192.735 63.45C194.135 64.15 195.335 65.1333 196.335 66.4C197.368 67.6667 198.152 69.1167 198.685 70.75C199.252 72.3833 199.535 74.1333 199.535 76C199.535 77.8667 199.218 79.6167 198.585 81.25C197.985 82.8833 197.135 84.3333 196.035 85.6C194.935 86.8333 193.635 87.8 192.135 88.5C190.668 89.1667 189.052 89.5 187.285 89.5ZM185.435 83.8C186.502 83.8 187.468 83.6 188.335 83.2C189.235 82.7667 190.002 82.2 190.635 81.5C191.302 80.8 191.802 79.9833 192.135 79.05C192.502 78.0833 192.685 77.0833 192.685 76.05C192.685 74.6167 192.385 73.3 191.785 72.1C191.218 70.8667 190.418 69.8833 189.385 69.15C188.385 68.4167 187.202 68.05 185.835 68.05C184.868 68.05 183.935 68.2833 183.035 68.75C182.168 69.1833 181.385 69.7833 180.685 70.55C180.018 71.3167 179.485 72.1833 179.085 73.15V79.4C179.285 80.0667 179.602 80.6667 180.035 81.2C180.502 81.7333 181.035 82.2 181.635 82.6C182.235 82.9667 182.852 83.2667 183.485 83.5C184.152 83.7 184.802 83.8 185.435 83.8Z" fill="black"/>
</g>
<defs>
<clipPath id="clip0_41_55">
<rect width="277" height="142" rx="25" fill="white"/>
</clipPath>
</defs>
</svg>
