<svg width="183" height="169" viewBox="0 0 183 169" fill="none" xmlns="http://www.w3.org/2000/svg">
<path d="M86.7634 8.00882C88.2955 3.47749 94.7045 3.47748 96.2366 8.00881L113.364 58.6633C114.05 60.6946 115.956 62.0618 118.1 62.0618H173.088C177.979 62.0618 179.961 68.3612 175.95 71.1615L131.811 101.979C129.989 103.251 129.225 105.574 129.937 107.68L146.876 157.78C148.422 162.352 143.235 166.244 139.278 163.481L94.3623 132.122C92.6429 130.922 90.3571 130.922 88.6377 132.122L43.7224 163.481C39.7654 166.244 34.5777 162.352 36.1235 157.78L53.0631 107.68C53.7751 105.574 53.0115 103.251 51.1889 101.979L7.04991 71.1615C3.03909 68.3612 5.02056 62.0618 9.91223 62.0618H64.8998C67.0441 62.0618 68.9496 60.6946 69.6364 58.6633L86.7634 8.00882Z" stroke="#1100D0" stroke-width="9"/>
</svg>
