<svg width="175" height="161" viewBox="0 0 175 161" fill="none" xmlns="http://www.w3.org/2000/svg">
<path d="M91.7629 4.16896L108.89 54.8235C109.645 57.0579 111.742 58.5618 114.1 58.5618H169.088C173.49 58.5618 175.274 64.2312 171.664 66.7515L127.525 97.5689C125.52 98.9686 124.68 101.524 125.463 103.84L142.403 153.94C143.794 158.055 139.125 161.558 135.564 159.072L90.6486 127.712C88.7572 126.392 86.2428 126.392 84.3514 127.712L39.4362 159.071C35.8749 161.558 31.206 158.055 32.5972 153.94L49.5368 103.84C50.32 101.524 49.48 98.9686 47.4751 97.5689L3.33615 66.7515C-0.273599 64.2312 1.50973 58.5618 5.91223 58.5618H60.8998C63.2585 58.5618 65.3546 57.0579 66.1101 54.8235L83.2371 4.16897C84.616 0.0907707 90.384 0.0907669 91.7629 4.16896Z" fill="#FEE920" stroke="black"/>
</svg>
